<svg width="178" height="50" viewBox="0 0 178 50" fill="none" xmlns="http://www.w3.org/2000/svg">
<path fill-rule="evenodd" clip-rule="evenodd" d="M27.9203 3.02835C30.5863 7.98311 35.6853 15.2543 37.0114 18.1562C36.9365 22.7225 36.4843 24.0514 36.3234 28.6483C36.2873 29.672 44.6599 29.7718 45.8084 29.2253C45.9638 24.7699 46.2079 22.7669 46.3133 18.2866C49.6257 13.3928 53.4653 9.09834 56.4392 4.00488C55.2186 3.13932 49.2706 1.20292 48.2053 1.16685C47.9113 1.15853 42.2685 9.5339 42.1881 9.82519C41.9661 9.81687 36.7478 1.31943 36.279 0.0488422C34.62 -0.0066422 29.5737 2.02686 27.9175 3.02835H27.9203Z" fill="#008CF0"/>
<path fill-rule="evenodd" clip-rule="evenodd" d="M0.208548 18.2394C2.63044 33.5919 16.9676 35.5838 29.3933 26.4899C29.1797 25.1305 27.4542 12.2166 26.7495 12.3247C21.9945 13.0488 19.4727 13.4317 14.7233 14.558C14.6872 16.0367 15.1033 18.3698 15.6138 20.3256C15.8524 21.2938 16.0355 20.9054 19.5865 20.3644L20.0692 22.5616C11.1417 27.0642 6.98596 14.877 12.3957 11.0292C15.9606 8.49355 21.1927 10.2801 21.7087 10.5492C22.7241 8.40755 24.2388 4.851 24.4081 2.65382C12.9394 -2.59778 -1.9387 4.64294 0.208548 18.2394Z" fill="#008CF0"/>
<path fill-rule="evenodd" clip-rule="evenodd" d="M169.78 22.9528C169.333 25.9933 162.636 21.3021 162.631 21.2994C161.768 22.925 160.988 23.9598 160.045 26.1737C163.627 28.737 169.289 30.2767 173.539 28.2127C176.824 26.6175 178.091 21.5157 175.636 18.6611C173.256 15.8924 168.365 15.7759 168.57 14.3749C168.881 12.2526 175.406 15.6178 175.406 15.6178C175.958 15.0157 176.416 14.3444 176.871 13.5676C178.336 11.0569 178.868 10.7712 175.367 9.37853C162.667 4.32668 158.722 15.6927 164.498 19.6237C166.332 20.8721 169.932 21.9263 169.78 22.9528Z" fill="#008CF0"/>
<path fill-rule="evenodd" clip-rule="evenodd" d="M93.8051 31.0785C94.0409 31.9884 102.574 30.0909 102.705 29.9161C102.083 26.0211 101.567 22.5866 100.946 18.6916C101.739 19.2797 110.617 29.0561 110.742 29.0367C111.91 29.0339 117.544 24.2067 117.969 23.5659C116.157 21.0719 110.872 16.6165 108.489 14.1308C109.16 12.2332 114.57 2.67326 114.476 1.33609C112.9 0.797889 107.779 -0.120377 106.481 0.0738182C105.521 0.218078 101.243 9.79191 99.9916 11.8282C99.5838 9.21487 98.8181 3.43062 98.3465 1.30002C97.8138 1.21125 90.0738 2.013 89.3802 2.93959C89.247 3.14488 93.3973 29.5194 93.8023 31.0757L93.8051 31.0785Z" fill="#008CF0"/>
<path fill-rule="evenodd" clip-rule="evenodd" d="M134.145 0.562087C133.843 3.10882 134.348 22.7447 134.303 28.8147C140.606 29.217 149.475 30.0215 154.627 26.207C158.472 23.3606 159.496 19.6015 159.385 13.8756C159.202 4.37386 151.631 0.226407 142.789 0.0599535C139.189 -0.00662778 136.603 0.243052 134.145 0.562087ZM142.998 20.8527L142.765 8.89584C147.034 8.81539 150.513 9.4701 150.621 14.3916C150.724 18.9912 147.597 21.6434 142.995 20.8527H142.998Z" fill="#008CF0"/>
<path fill-rule="evenodd" clip-rule="evenodd" d="M130.38 27.8243C129.249 28.8452 120.884 28.4124 120.207 27.7549C120.232 27.1058 120.643 20.2201 121.686 11.7893C123.367 11.5257 127.673 11.24 129.332 11.2566C129.939 17.3932 130.38 27.8243 130.38 27.8243Z" fill="#008CF0"/>
<path fill-rule="evenodd" clip-rule="evenodd" d="M125.279 0.0654629C127.956 -0.150926 130.269 1.72722 130.444 4.26008C130.619 6.79294 128.588 9.02342 125.911 9.23981C123.234 9.45619 120.92 7.57805 120.748 5.04519C120.574 2.51232 122.604 0.281852 125.281 0.0654629H125.279Z" fill="#008CF0"/>
<path fill-rule="evenodd" clip-rule="evenodd" d="M70.9817 11.9613C67.0756 7.64464 64.3652 3.94661 60.8947 0.0488281C59.9209 1.25561 53.1435 24.0597 52.0532 27.5524C54.5694 28.7287 57.9318 29.8634 60.8641 30.1713C61.9072 26.7174 63.2028 22.5644 64.2487 19.1105C66.3848 21.7183 68.607 24.0153 70.4629 26.3179C71.7002 24.9946 75.0487 20.6113 75.9698 19.7486C77.0045 21.8514 80.7026 31.7054 81.5959 32.7014C85.2468 31.9912 87.9599 30.9453 90.5205 29.597C87.1443 20.1342 83.7653 10.6713 80.3891 1.20845C78.2946 3.39454 71.8778 11.0486 70.9845 11.9613H70.9817Z" fill="#008CF0"/>
<path d="M0.000610352 48.5283L0.444485 43.8121H1.29894L2.22831 46.1453L2.46134 46.836H2.47521C2.55844 46.5614 2.63612 46.3311 2.70825 46.1453L3.63761 43.8121H4.46433L4.93317 48.5283H4.10645L3.8429 45.8928C3.84845 45.7985 3.85123 45.6931 3.85123 45.5682C3.85123 45.4434 3.85123 45.349 3.84845 45.2714V45.1576H3.85678C3.74303 45.4572 3.64871 45.6986 3.56826 45.8762L2.83586 47.7127H2.09515L1.35998 45.8706L1.07146 45.1493H1.09088C1.08256 45.4351 1.08533 45.682 1.0992 45.8928L0.852296 48.5255H0.000610352V48.5283Z" fill="#008CF0"/>
<path d="M5.89282 48.5283V43.8121H8.71698V44.5501H6.75006V45.7874H8.33691V46.5253H6.75006V47.7931H8.8224V48.5311H5.89282V48.5283Z" fill="#008CF0"/>
<path d="M9.1886 48.5283L10.5174 46.0703V46.0565L9.28847 43.8121H10.2123L11.2166 45.7319H11.7714V43.8121H12.6231V45.7319H13.1724L14.185 43.8121H15.1088L13.8715 46.0565V46.0703L15.2087 48.5283H14.246L13.1752 46.4671H12.6231V48.5283H11.7714V46.4671H11.2277L10.1513 48.5283H9.1886Z" fill="#008CF0"/>
<path d="M15.342 47.7904H15.822C16.277 47.0996 16.5072 46.1175 16.5072 44.8414V43.8121H19.4368V47.7931H19.9611V49.4604H19.1982V48.5311H16.1355V49.4604H15.3448V47.7931L15.342 47.7904ZM16.7042 47.7904H18.5768V44.5473H17.3145V44.8996C17.3145 46.1674 17.112 47.1301 16.7042 47.7904Z" fill="#008CF0"/>
<path d="M20.6574 48.2814L21.0346 47.6378C21.2344 47.7931 21.4119 47.8708 21.5673 47.8708C21.7809 47.8708 21.9446 47.7432 22.0528 47.4852L20.1913 43.8094H21.1345L22.1305 45.9178L22.3996 46.5392H22.4134C22.4772 46.3339 22.5494 46.1314 22.627 45.9289L23.365 43.8066H24.2611L22.8046 47.5351C22.7463 47.6822 22.6881 47.8098 22.6243 47.9207C22.5632 48.0317 22.4828 48.1427 22.3857 48.2537C22.2886 48.3646 22.1721 48.4506 22.0389 48.5117C21.9058 48.5727 21.7587 48.606 21.595 48.606C21.276 48.606 20.9625 48.4978 20.6518 48.2814H20.6574Z" fill="#008CF0"/>
<path d="M24.8492 48.5283V43.8121H25.7065V45.8123H27.8648V43.8121H28.7165V48.5283H27.8648V46.5475H25.7065V48.5283H24.8492Z" fill="#008CF0"/>
<path d="M29.3407 48.5283L30.9941 43.8121H31.8985L33.552 48.5283H32.6753L32.2814 47.3187H30.6113L30.2174 48.5283H29.3407ZM30.8388 46.6224H32.0539L31.6433 45.3574L31.4547 44.6278H31.4408C31.3687 44.9385 31.3076 45.1798 31.2521 45.3574L30.8415 46.6224H30.8388Z" fill="#008CF0"/>
<path d="M34.1788 48.5283V43.8121H35.9987C36.4426 43.8121 36.8032 43.9536 37.0807 44.2366C37.3581 44.5196 37.4996 44.8913 37.4996 45.3463C37.4996 45.8012 37.3609 46.1758 37.0807 46.4643C36.8005 46.7556 36.4398 46.8998 35.9987 46.8998H35.0361V48.5283H34.1788ZM35.0361 46.1563H35.8406C36.0875 46.1563 36.2817 46.0842 36.4232 45.9372C36.5619 45.7902 36.6312 45.5932 36.6312 45.3463C36.6312 45.0994 36.5619 44.9079 36.4232 44.7637C36.2845 44.6194 36.093 44.5473 35.8545 44.5473H35.0361V46.1563Z" fill="#008CF0"/>
<path d="M37.9657 46.137C37.9657 45.4601 38.1987 44.8886 38.6676 44.4253C39.1364 43.962 39.7135 43.7317 40.4042 43.7317C41.095 43.7317 41.6748 43.9648 42.1409 44.4253C42.607 44.8858 42.8428 45.4573 42.8428 46.137C42.8428 46.8167 42.6097 47.4187 42.1409 47.8958C41.6721 48.373 41.095 48.6088 40.4042 48.6088C39.7135 48.6088 39.1336 48.3702 38.6676 47.8958C38.2015 47.4214 37.9657 46.8333 37.9657 46.137ZM38.8479 46.137C38.8479 46.6169 38.9977 47.0164 39.3001 47.341C39.5997 47.6656 39.9687 47.8265 40.4042 47.8265C40.8398 47.8265 41.206 47.6656 41.5084 47.341C41.808 47.0164 41.9606 46.6169 41.9606 46.137C41.9606 45.657 41.8108 45.2964 41.5084 44.9857C41.206 44.675 40.8398 44.5168 40.4042 44.5168C39.9687 44.5168 39.6025 44.6722 39.3001 44.9857C38.9977 45.2964 38.8479 45.682 38.8479 46.137Z" fill="#008CF0"/>
<path d="M43.0287 47.7904H43.5086C43.9636 47.0996 44.1939 46.1175 44.1939 44.8414V43.8121H47.1234V47.7931H47.6478V49.4604H46.8848V48.5311H43.8221V49.4604H43.0315V47.7931L43.0287 47.7904ZM44.3908 47.7904H46.2634V44.5473H45.0012V44.8996C45.0012 46.1674 44.7986 47.1301 44.3908 47.7904Z" fill="#008CF0"/>
<path d="M48.4688 48.5283V43.8121H49.326V45.8123H51.4843V43.8121H52.336V48.5283H51.4843V46.5475H49.326V48.5283H48.4688Z" fill="#008CF0"/>
<path d="M52.9604 48.5283L54.6139 43.8121H55.5183L57.1717 48.5283H56.2951L55.9011 47.3187H54.231L53.8371 48.5283H52.9604ZM54.4585 46.6224H55.6736L55.2631 45.3574L55.0744 44.6278H55.0605C54.9884 44.9385 54.9274 45.1798 54.8719 45.3574L54.4613 46.6224H54.4585Z" fill="#008CF0"/>
<path d="M57.3408 48.5283L58.3395 46.8721L58.4921 46.6196V46.6058C58.2119 46.4809 58.0039 46.3006 57.8651 46.062C57.7264 45.8234 57.6571 45.5488 57.6571 45.2381C57.6571 44.9274 57.7292 44.6472 57.8735 44.4252C58.0177 44.2005 58.2091 44.0396 58.4477 43.937C58.6419 43.8537 58.9415 43.8121 59.3438 43.8121H60.8724V48.5283H60.0152V46.7667H59.3244L58.3007 48.5283H57.3436H57.3408ZM59.2689 46.0509H60.0124V44.5501H59.4076C59.1413 44.5501 58.9443 44.5889 58.8167 44.6694C58.6225 44.7887 58.5254 44.9912 58.5254 45.2741C58.5254 45.5211 58.592 45.7125 58.7252 45.8484C58.8583 45.9843 59.0386 46.0509 59.2689 46.0509Z" fill="#008CF0"/>
<path d="M63.3995 46.148C63.3995 45.4573 63.627 44.883 64.0848 44.4197C64.5425 43.9592 65.1223 43.7289 65.827 43.7289C66.5316 43.7289 67.1253 43.9425 67.5664 44.3725L67.1558 45.0106C66.9838 44.8636 66.7813 44.7443 66.5483 44.6527C66.3152 44.5584 66.0878 44.514 65.8658 44.514C65.3692 44.514 64.9836 44.6694 64.7034 44.9801C64.4232 45.2908 64.2845 45.6764 64.2845 46.1369C64.2845 46.5975 64.426 46.9997 64.709 47.3298C64.9919 47.66 65.3803 47.8237 65.8714 47.8237C66.3624 47.8237 66.8312 47.6239 67.2391 47.2244L67.6913 47.8431C67.1891 48.3535 66.5732 48.606 65.8381 48.606C65.1029 48.606 64.5175 48.373 64.0709 47.9069C63.6242 47.4408 63.3995 46.8555 63.3995 46.1453V46.148Z" fill="#008CF0"/>
<path d="M68.4294 48.5283V43.8121H71.2536V44.5501H69.2867V45.7874H70.8735V46.5253H69.2867V47.7931H71.359V48.5311H68.4294V48.5283Z" fill="#008CF0"/>
<path d="M73.2787 48.5283V44.5473H71.7307V43.8094H75.6784V44.5473H74.1304V48.5283H73.2815H73.2787Z" fill="#008CF0"/>
<path d="M76.3498 48.5283V43.8121H77.207V45.4656H78.1309C78.5636 45.4656 78.9187 45.6071 79.1934 45.8872C79.468 46.1674 79.604 46.542 79.604 47.008C79.604 47.4741 79.468 47.8264 79.1989 48.1066C78.9298 48.3868 78.5775 48.5283 78.142 48.5283H76.347H76.3498ZM77.207 47.7904H77.9922C78.2252 47.7904 78.4083 47.721 78.5387 47.5795C78.6691 47.4408 78.7356 47.2494 78.7356 47.0053C78.7356 46.7611 78.6691 46.5669 78.5331 46.4199C78.3972 46.2729 78.2141 46.2007 77.9783 46.2007H77.207V47.7876V47.7904Z" fill="#008CF0"/>
<path d="M82.0146 48.5283V43.8121H84.7251V44.5501H82.8719V48.5311H82.0146V48.5283Z" fill="#008CF0"/>
<path d="M85.377 48.5283V43.8121H86.2343V46.5364L86.1871 47.266H86.201C86.3508 46.9581 86.4812 46.714 86.5949 46.5253L88.3788 43.8094H89.2304V48.5255H88.3788V45.8068L88.4259 45.0772H88.412C88.2622 45.3768 88.1291 45.6181 88.0098 45.8012L86.2121 48.5255H85.3743L85.377 48.5283Z" fill="#008CF0"/>
<path d="M90.2014 48.5283L90.6453 43.8121H91.4997L92.4291 46.1453L92.6621 46.836H92.676C92.7592 46.5614 92.8369 46.3311 92.909 46.1453L93.8384 43.8121H94.6651L95.1339 48.5283H94.3072L94.0437 45.8928C94.0492 45.7985 94.052 45.6931 94.052 45.5682C94.052 45.4434 94.052 45.349 94.0492 45.2714V45.1576H94.0575C93.9438 45.4572 93.8495 45.6986 93.769 45.8762L93.0366 47.7127H92.2959L91.5608 45.8706L91.2722 45.1493H91.2917C91.2833 45.4351 91.2861 45.682 91.3 45.8928L91.0531 48.5255H90.1986L90.2014 48.5283Z" fill="#008CF0"/>
<path d="M96.0939 48.5283V43.8121H96.9511V45.8123H99.1094V43.8121H99.9611V48.5283H99.1094V46.5475H96.9511V48.5283H96.0939Z" fill="#008CF0"/>
<path d="M100.585 48.5283L102.239 43.8121H103.143L104.796 48.5283H103.92L103.526 47.3187H101.856L101.462 48.5283H100.585ZM102.083 46.6224H103.298L102.888 45.3574L102.699 44.6278H102.685C102.613 44.9385 102.552 45.1798 102.497 45.3574L102.086 46.6224H102.083Z" fill="#008CF0"/>
<path d="M105.038 46.148C105.038 45.4573 105.265 44.883 105.723 44.4197C106.181 43.9592 106.761 43.7289 107.465 43.7289C108.17 43.7289 108.764 43.9425 109.205 44.3725L108.794 45.0106C108.622 44.8636 108.42 44.7443 108.187 44.6527C107.954 44.5612 107.726 44.514 107.504 44.514C107.008 44.514 106.622 44.6694 106.342 44.9801C106.062 45.2908 105.923 45.6764 105.923 46.1369C105.923 46.5975 106.064 46.9997 106.347 47.3298C106.63 47.66 107.019 47.8237 107.51 47.8237C108.001 47.8237 108.47 47.6239 108.877 47.2244L109.33 47.8431C108.827 48.3535 108.212 48.606 107.476 48.606C106.741 48.606 106.156 48.373 105.709 47.9069C105.263 47.4408 105.038 46.8555 105.038 46.1453V46.148Z" fill="#008CF0"/>
<path d="M111.139 48.5283V44.5473H109.591V43.8094H113.538V44.5473H111.99V48.5283H111.141H111.139Z" fill="#008CF0"/>
<path d="M114.207 48.5283V43.8121H115.064V46.5364L115.017 47.266H115.031C115.18 46.9581 115.311 46.714 115.425 46.5253L117.208 43.8094H118.06V48.5255H117.208V45.8068L117.255 45.0772H117.242C117.092 45.3768 116.959 45.6181 116.839 45.8012L115.042 48.5255H114.204L114.207 48.5283Z" fill="#008CF0"/>
<path d="M120.385 46.775C119.902 46.775 119.541 46.6529 119.303 46.406C119.064 46.1591 118.945 45.8123 118.945 45.3601V43.8121H119.816V45.1687C119.816 45.7236 120.08 45.9982 120.607 45.9982C120.965 45.9982 121.289 45.9039 121.578 45.718V43.8121H122.449V48.5283H121.578V46.7001L121.592 46.4809H121.578C121.198 46.6751 120.801 46.7722 120.388 46.7722L120.385 46.775Z" fill="#008CF0"/>
<path d="M123.595 48.5283V43.8121H126.419V44.5501H124.452V45.7874H126.039V46.5253H124.452V47.7931H126.524V48.5311H123.595V48.5283Z" fill="#008CF0"/>
<path d="M127.015 46.148C127.015 45.4573 127.243 44.883 127.701 44.4197C128.158 43.9592 128.738 43.7289 129.443 43.7289C130.147 43.7289 130.741 43.9425 131.182 44.3725L130.772 45.0106C130.6 44.8636 130.397 44.7443 130.164 44.6527C129.931 44.5584 129.704 44.514 129.482 44.514C128.985 44.514 128.599 44.6694 128.319 44.9801C128.039 45.2908 127.9 45.6764 127.9 46.1369C127.9 46.5975 128.042 46.9997 128.325 47.3298C128.608 47.66 128.996 47.8237 129.487 47.8237C129.978 47.8237 130.447 47.6239 130.855 47.2244L131.307 47.8431C130.805 48.3535 130.189 48.606 129.454 48.606C128.719 48.606 128.133 48.373 127.687 47.9069C127.24 47.4408 127.015 46.8555 127.015 46.1453V46.148Z" fill="#008CF0"/>
<path d="M132.045 48.5283V43.8121H132.902V45.7319H133.513L134.622 43.8121H135.552L134.217 46.0565V46.0703L135.632 48.5283H134.661L133.513 46.4671H132.899V48.5283H132.042H132.045Z" fill="#008CF0"/>
<path d="M136.284 48.5283V43.8121H137.141V46.5364L137.094 47.266H137.108C137.258 46.9581 137.388 46.714 137.502 46.5253L139.286 43.8094H140.137V48.5255H139.286V45.8068L139.333 45.0772H139.319C139.169 45.3768 139.036 45.6181 138.917 45.8012L137.119 48.5255H136.281L136.284 48.5283Z" fill="#008CF0"/>
<path d="M140.803 48.5283L142.304 46.1203L140.856 43.8121H141.832L142.459 44.969L142.739 45.5405H142.753C142.839 45.338 142.931 45.141 143.034 44.9468L143.738 43.8149H144.715L143.255 46.1342L144.767 48.5311H143.81L143.072 47.2633L142.781 46.7056H142.767C142.678 46.8971 142.584 47.0829 142.481 47.2633L141.752 48.5311H140.8L140.803 48.5283Z" fill="#008CF0"/>
<path d="M147.081 48.5283V43.8121H147.939V47.7931H149.978V43.8121H150.835V47.7931H151.392V49.4604H150.63V48.5311H147.081V48.5283Z" fill="#008CF0"/>
<path d="M152.205 48.5283V43.8121H155.029V44.5501H153.063V45.7874H154.649V46.5253H153.063V47.7931H155.135V48.5311H152.205V48.5283Z" fill="#008CF0"/>
<path d="M155.984 48.5283V43.8121H156.841V45.8123H158.999V43.8121H159.851V48.5283H158.999V46.5475H156.841V48.5283H155.984Z" fill="#008CF0"/>
<path d="M162.065 48.5283V44.5473H160.517V43.8094H164.465V44.5473H162.917V48.5283H162.068H162.065Z" fill="#008CF0"/>
<path d="M165.133 48.5283V43.8121H166.953C167.397 43.8121 167.757 43.9536 168.035 44.2366C168.315 44.5196 168.454 44.8913 168.454 45.3463C168.454 45.8012 168.315 46.1758 168.035 46.4643C167.755 46.7556 167.394 46.8998 166.953 46.8998H165.99V48.5283H165.133ZM165.99 46.1563H166.795C167.042 46.1563 167.236 46.0842 167.377 45.9372C167.516 45.7902 167.585 45.5932 167.585 45.3463C167.585 45.0994 167.516 44.9079 167.377 44.7637C167.239 44.6194 167.047 44.5473 166.809 44.5473H165.99V46.1563Z" fill="#008CF0"/>
<path d="M168.923 46.137C168.923 45.4601 169.156 44.8886 169.625 44.4253C170.093 43.962 170.67 43.7317 171.361 43.7317C172.052 43.7317 172.632 43.9648 173.098 44.4253C173.564 44.8858 173.8 45.4573 173.8 46.137C173.8 46.8167 173.567 47.4187 173.098 47.8958C172.629 48.373 172.052 48.6088 171.361 48.6088C170.67 48.6088 170.091 48.3702 169.625 47.8958C169.159 47.4214 168.923 46.8333 168.923 46.137ZM169.805 46.137C169.805 46.6169 169.955 47.0164 170.257 47.341C170.557 47.6656 170.926 47.8265 171.361 47.8265C171.797 47.8265 172.163 47.6656 172.465 47.341C172.765 47.0164 172.918 46.6169 172.918 46.137C172.918 45.657 172.768 45.2964 172.465 44.9857C172.163 44.675 171.797 44.5168 171.361 44.5168C170.926 44.5168 170.56 44.6722 170.257 44.9857C169.955 45.2964 169.805 45.682 169.805 46.137Z" fill="#008CF0"/>
<path d="M174.662 48.5283V43.8121H176.344C176.782 43.8121 177.134 43.9203 177.403 44.1339C177.672 44.3476 177.806 44.6472 177.806 45.0272C177.806 45.2492 177.756 45.4489 177.653 45.6237C177.55 45.8012 177.412 45.9372 177.234 46.0371V46.0509C177.481 46.1231 177.672 46.2618 177.803 46.4698C177.933 46.6779 178 46.9082 178 47.1606C178 47.6073 177.844 47.9485 177.534 48.1815C177.223 48.4146 176.835 48.5311 176.371 48.5311H174.662V48.5283ZM175.52 45.7374H176.349C176.53 45.7374 176.674 45.682 176.776 45.5682C176.879 45.4545 176.932 45.3102 176.932 45.1327C176.932 44.9551 176.879 44.8192 176.776 44.711C176.674 44.6028 176.524 44.5473 176.335 44.5473H175.517V45.7374H175.52ZM175.52 47.7904H176.435C176.649 47.7904 176.815 47.7266 176.937 47.6017C177.059 47.4741 177.12 47.3104 177.12 47.1079C177.12 46.9054 177.059 46.7445 176.937 46.6196C176.815 46.492 176.649 46.431 176.435 46.431H175.52V47.7931V47.7904Z" fill="#008CF0"/>
</svg>
